<?xml version="1.0" encoding="UTF-8" standalone="no"?>
<!DOCTYPE svg PUBLIC "-//W3C//DTD SVG 1.1//EN" "http://www.w3.org/Graphics/SVG/1.1/DTD/svg11.dtd">
<svg width="100%" height="100%" viewBox="0 0 237 33" version="1.1" xmlns="http://www.w3.org/2000/svg" xmlns:xlink="http://www.w3.org/1999/xlink" xml:space="preserve" xmlns:serif="http://www.serif.com/" style="fill-rule:evenodd;clip-rule:evenodd;stroke-linejoin:round;stroke-miterlimit:2;">
    <g transform="matrix(1,0,0,1,-18.7734,-23.2734)">
        <path d="M18.773,25.201L28.104,25.201C32.356,25.201 35.443,25.806 37.364,27.016C39.285,28.226 40.245,30.15 40.245,32.789C40.245,34.58 39.825,36.05 38.984,37.198C38.143,38.347 37.025,39.037 35.631,39.27L35.631,39.475C37.531,39.898 38.902,40.691 39.743,41.854C40.583,43.016 41.004,44.561 41.004,46.488C41.004,49.223 40.016,51.355 38.041,52.887C36.065,54.418 33.382,55.184 29.991,55.184L18.773,55.184L18.773,25.201ZM25.131,37.075L28.822,37.075C30.545,37.075 31.792,36.809 32.565,36.275C33.337,35.742 33.724,34.86 33.724,33.63C33.724,32.481 33.303,31.658 32.462,31.159C31.622,30.66 30.292,30.41 28.474,30.41L25.131,30.41L25.131,37.075ZM25.131,42.12L25.131,49.934L29.273,49.934C31.023,49.934 32.315,49.599 33.149,48.929C33.983,48.259 34.4,47.233 34.4,45.853C34.4,43.364 32.623,42.12 29.068,42.12L25.131,42.12ZM62.184,31.825C63.031,31.825 63.736,31.887 64.296,32.01L63.824,37.875C63.319,37.738 62.703,37.67 61.979,37.67C59.983,37.67 58.427,38.183 57.313,39.208C56.199,40.233 55.642,41.669 55.642,43.515L55.642,55.184L49.387,55.184L49.387,32.256L54.124,32.256L55.047,36.111L55.355,36.111C56.066,34.826 57.026,33.791 58.236,33.004C59.446,32.218 60.762,31.825 62.184,31.825ZM85.907,55.184L84.697,52.066L84.533,52.066C83.48,53.393 82.396,54.312 81.282,54.825C80.168,55.337 78.715,55.594 76.924,55.594C74.723,55.594 72.99,54.965 71.725,53.707C70.461,52.449 69.828,50.658 69.828,48.334C69.828,45.9 70.68,44.106 72.382,42.951C74.084,41.795 76.651,41.156 80.082,41.033L84.061,40.91L84.061,39.905C84.061,37.581 82.871,36.419 80.493,36.419C78.66,36.419 76.507,36.973 74.033,38.08L71.961,33.855C74.6,32.475 77.526,31.784 80.739,31.784C83.815,31.784 86.173,32.454 87.814,33.794C89.454,35.134 90.275,37.171 90.275,39.905L90.275,55.184L85.907,55.184ZM84.061,44.561L81.641,44.643C79.823,44.697 78.469,45.025 77.58,45.627C76.692,46.229 76.247,47.145 76.247,48.375C76.247,50.139 77.259,51.021 79.283,51.021C80.732,51.021 81.89,50.604 82.759,49.77C83.627,48.936 84.061,47.828 84.061,46.447L84.061,44.561ZM106.861,55.594C104.167,55.594 102.052,54.548 100.514,52.456C98.976,50.364 98.207,47.466 98.207,43.761C98.207,40.001 98.989,37.072 100.555,34.973C102.12,32.875 104.277,31.825 107.025,31.825C109.91,31.825 112.111,32.946 113.628,35.188L113.834,35.188C113.519,33.479 113.362,31.955 113.362,30.615L113.362,23.273L119.637,23.273L119.637,55.184L114.838,55.184L113.628,52.21L113.362,52.21C111.94,54.466 109.773,55.594 106.861,55.594ZM109.055,50.61C110.655,50.61 111.827,50.146 112.572,49.216C113.317,48.286 113.724,46.707 113.792,44.479L113.792,43.802C113.792,41.341 113.413,39.577 112.654,38.511C111.896,37.444 110.662,36.911 108.953,36.911C107.558,36.911 106.475,37.502 105.702,38.685C104.93,39.868 104.543,41.587 104.543,43.843C104.543,46.099 104.933,47.791 105.712,48.918C106.492,50.046 107.606,50.61 109.055,50.61ZM161.71,55.184L159.536,48.047L148.605,48.047L146.431,55.184L139.582,55.184L150.164,25.078L157.936,25.078L168.559,55.184L161.71,55.184ZM158.018,42.715C156.009,36.248 154.877,32.591 154.624,31.743C154.371,30.896 154.19,30.226 154.081,29.733C153.63,31.483 152.338,35.811 150.205,42.715L158.018,42.715ZM180.982,55.184L174.728,55.184L174.728,23.273L180.982,23.273L180.982,55.184ZM196.687,55.184L190.432,55.184L190.432,23.273L196.687,23.273L196.687,55.184ZM215.631,36.275C214.305,36.275 213.266,36.696 212.514,37.537C211.762,38.377 211.331,39.57 211.222,41.115L219.999,41.115C219.972,39.57 219.569,38.377 218.789,37.537C218.01,36.696 216.957,36.275 215.631,36.275ZM216.513,55.594C212.822,55.594 209.937,54.575 207.859,52.538C205.781,50.501 204.742,47.616 204.742,43.884C204.742,40.042 205.702,37.072 207.623,34.973C209.544,32.875 212.2,31.825 215.59,31.825C218.83,31.825 221.353,32.748 223.158,34.594C224.962,36.439 225.865,38.989 225.865,42.243L225.865,45.278L211.078,45.278C211.147,47.056 211.673,48.443 212.658,49.441C213.642,50.439 215.023,50.938 216.8,50.938C218.181,50.938 219.487,50.795 220.717,50.508C221.948,50.221 223.233,49.763 224.573,49.134L224.573,53.974C223.479,54.521 222.31,54.927 221.066,55.194C219.822,55.46 218.304,55.594 216.513,55.594ZM255.001,55.184L248.747,55.184L248.747,41.792C248.747,40.138 248.453,38.897 247.865,38.07C247.277,37.243 246.34,36.829 245.055,36.829C243.305,36.829 242.041,37.414 241.261,38.583C240.482,39.751 240.092,41.689 240.092,44.396L240.092,55.184L233.837,55.184L233.837,32.256L238.616,32.256L239.457,35.188L239.805,35.188C240.502,34.081 241.463,33.244 242.687,32.676C243.91,32.109 245.301,31.825 246.86,31.825C249.526,31.825 251.549,32.546 252.93,33.989C254.311,35.431 255.001,37.513 255.001,40.233L255.001,55.184Z" style="fill:rgb(102,16,242);fill-rule:nonzero;"/>
    </g>
</svg>
