<?xml version="1.0"?>
<svg version="1.1" xmlns="http://www.w3.org/2000/svg" width="400" height="60" style="border: dashed 2px #aaa"><path fill="#6610f2" d="M18.7734375,25.201171875l9.3310546875,0q6.3779296875,0,9.25927734375,1.81494140625t2.88134765625,5.77294921875q0,2.6865234375-1.26123046875,4.4091796875t-3.35302734375,2.0712890625l0,0.205078125q2.8505859375,0.6357421875,4.11181640625,2.37890625t1.26123046875,4.634765625q0,4.1015625-2.96337890625,6.3984375t-8.04931640625,2.296875l-11.2177734375,0l0-29.982421875z M25.130859375,37.0751953125l3.69140625,0q2.583984375,0,3.74267578125-0.7998046875t1.15869140625-2.6455078125q0-1.72265625-1.26123046875-2.47119140625t-3.98876953125-0.74853515625l-3.3427734375,0l0,6.6650390625z M25.130859375,42.1201171875l0,7.8134765625l4.142578125,0q2.625,0,3.8759765625-1.0048828125t1.2509765625-3.076171875q0-3.732421875-5.33203125-3.732421875l-3.9375,0z M62.183759765625,31.8251953125q1.271484375,0,2.1123046875,0.1845703125l-0.4716796875,5.865234375q-0.7587890625-0.205078125-1.845703125-0.205078125q-2.994140625,0-4.66552734375,1.5380859375t-1.67138671875,4.306640625l0,11.6689453125l-6.2548828125,0l0-22.927734375l4.7373046875,0l0.9228515625,3.85546875l0.3076171875,0q1.06640625-1.927734375,2.88134765625-3.10693359375t3.94775390625-1.17919921875z M85.90658203125,55.18359375l-1.2099609375-3.1171875l-0.1640625,0q-1.5791015625,1.9892578125-3.25048828125,2.75830078125t-4.35791015625,0.76904296875q-3.3017578125,0-5.19873046875-1.88671875t-1.89697265625-5.373046875q0-3.650390625,2.55322265625-5.38330078125t7.70068359375-1.91748046875l3.978515625-0.123046875l0-1.0048828125q0-3.486328125-3.568359375-3.486328125q-2.748046875,0-6.4599609375,1.6611328125l-2.0712890625-4.224609375q3.9580078125-2.0712890625,8.77734375-2.0712890625q4.6142578125,0,7.0751953125,2.009765625t2.4609375,6.111328125l0,15.2783203125l-4.3681640625,0z M84.06087890625,44.560546875l-2.419921875,0.08203125q-2.7275390625,0.08203125-4.060546875,0.984375t-1.3330078125,2.748046875q0,2.6455078125,3.03515625,2.6455078125q2.173828125,0,3.47607421875-1.2509765625t1.30224609375-3.322265625l0-1.88671875z M106.86084960937,55.59375q-4.0400390625,0-6.34716796875-3.1376953125t-2.30712890625-8.6953125q0-5.6396484375,2.34814453125-8.78759765625t6.47021484375-3.14794921875q4.3271484375,0,6.603515625,3.36328125l0.205078125,0q-0.4716796875-2.5634765625-0.4716796875-4.5732421875l0-7.341796875l6.275390625,0l0,31.91015625l-4.798828125,0l-1.2099609375-2.9736328125l-0.2666015625,0q-2.1328125,3.3837890625-6.5009765625,3.3837890625z M109.05518554687,50.6103515625q2.3994140625,0,3.51708984375-1.39453125t1.22021484375-4.7373046875l0-0.6767578125q0-3.69140625-1.13818359375-5.291015625t-3.70166015625-1.599609375q-2.091796875,0-3.25048828125,1.77392578125t-1.15869140625,5.15771484375t1.1689453125,5.07568359375t3.3427734375,1.69189453125z M161.70981445312,55.18359375l-2.173828125-7.13671875l-10.9306640625,0l-2.173828125,7.13671875l-6.849609375,0l10.58203125-30.10546875l7.7724609375,0l10.623046875,30.10546875l-6.849609375,0z M158.01840820312,42.71484375q-3.0146484375-9.7001953125-3.39404296875-10.9716796875t-0.54345703125-2.009765625q-0.6767578125,2.625-3.8759765625,12.9814453125l7.8134765625,0z M180.98244140625,55.18359375l-6.2548828125,0l0-31.91015625l6.2548828125,0l0,31.91015625z M196.68670898438,55.18359375l-6.2548828125,0l0-31.91015625l6.2548828125,0l0,31.91015625z M215.6312109375,36.275390625q-1.9892578125,0-3.1171875,1.26123046875t-1.2919921875,3.57861328125l8.77734375,0q-0.041015625-2.3173828125-1.2099609375-3.57861328125t-3.158203125-1.26123046875z M216.513046875,55.59375q-5.537109375,0-8.654296875-3.0556640625t-3.1171875-8.654296875q0-5.7626953125,2.88134765625-8.91064453125t7.96728515625-3.14794921875q4.8603515625,0,7.5673828125,2.7685546875t2.70703125,7.6494140625l0,3.03515625l-14.7861328125,0q0.1025390625,2.666015625,1.5791015625,4.1630859375t4.142578125,1.4970703125q2.0712890625,0,3.9169921875-0.4306640625t3.85546875-1.3740234375l0,4.83984375q-1.640625,0.8203125-3.5068359375,1.22021484375t-4.552734375,0.39990234375z M255.00149414063,55.18359375l-6.2548828125,0l0-13.3916015625q0-2.4814453125-0.8818359375-3.72216796875t-2.8095703125-1.24072265625q-2.625,0-3.7939453125,1.75341796875t-1.1689453125,5.81396484375l0,10.787109375l-6.2548828125,0l0-22.927734375l4.7783203125,0l0.8408203125,2.9326171875l0.3486328125,0q1.0458984375-1.6611328125,2.88134765625-2.51220703125t4.17333984375-0.85107421875q3.9990234375,0,6.0703125,2.16357421875t2.0712890625,6.24462890625l0,14.9501953125z"/><path fill="#" d=""/></svg>
